<svg width="2680" height="2585" xmlns="http://www.w3.org/2000/svg" xmlns:xlink="http://www.w3.org/1999/xlink" xml:space="preserve" overflow="hidden"><defs><clipPath id="clip0"><rect x="310" y="-55" width="2680" height="2585"/></clipPath></defs><g clip-path="url(#clip0)" transform="translate(-310 55)"><g><path d="M587.5 2190.57 2379.5 2190.57M587.5 1959.56 2379.5 1959.56M587.5 1728.56 2379.5 1728.56M587.5 1497.55 2379.5 1497.55M587.5 1266.54 2379.5 1266.54M587.5 1035.53 2379.5 1035.53M587.5 804.527 2379.5 804.527M587.5 573.519 2379.5 573.519M587.5 343.511 2379.5 343.511M587.5 112.5 2379.5 112.5" stroke="#D9D9D9" stroke-width="3.4375" stroke-linejoin="round" stroke-miterlimit="10" fill="none"/></g><g><path d="M587.5 112.5 587.5 2421.5M709.523 112.5 709.523 2421.5M830.527 112.5 830.527 2421.5M952.531 112.5 952.531 2421.5M1073.54 112.5 1073.54 2421.5M1195.54 112.5 1195.54 2421.5M1316.54 112.5 1316.54 2421.5M1437.55 112.5 1437.55 2421.5M1559.55 112.5 1559.55 2421.5M1680.56 112.5 1680.56 2421.5M1802.56 112.5 1802.56 2421.5M1923.56 112.5 1923.56 2421.5M2045.57 112.5 2045.57 2421.5M2166.57 112.5 2166.57 2421.5M2287.5 112.5 2287.5 2421.5" stroke="#D9D9D9" stroke-width="3.4375" stroke-linejoin="round" stroke-miterlimit="10" fill="none"/></g><g><path d="M587.5 2421.5 2379.5 2421.5" stroke="#D9D9D9" stroke-width="3.4375" stroke-linejoin="round" stroke-miterlimit="10" fill="none" fill-rule="evenodd"/></g><g><path d="M603 2421 633.021 2419.08 664.022 2415.08 694.023 2412.08 724.024 2409.08 755.025 2407.08 785.026 2402.08 816.027 2394.08 846.028 2386.08 876.029 2381.08 907.03 2374.08 937.031 2366.08 967.032 2353.08 998.033 2336.08 1028.03 2322.08 1058.03 2312.08 1089.04 2307.08 1119.04 2299.08 1149.04 2293.08 1180.04 2289.08 1210.04 2283.07 1241.04 2274.07 1271.04 2265.07 1301.04 2253.07 1332.04 2244.07 1362.04 2237.07 1392.05 2230.07 1423.05 2223.07 1453.05 2216.07 1483.05 2210.07 1514.05 2205.07 1544.05 2199.07 1575.05 2193.07 1605.05 2183.07 1635.05 2175.07 1666.05 2170.07 1696.06 2163.07 1726.06 2155.07 1757.06 2144.07 1787.06 2133.07 1817.06 2123.07 1848.06 2110.07 1878.06 2111.07 1908.06 2105.07 1939.06 2093.07 1969.06 2085.07 2000.07 2079.07 2030.07 2073.07 2060.07 2073.07 2091.07 2067.07 2121.07 2059.07 2151.07 2049.07 2182.07 2041.07 2212.07 2036.07 2242.07 2015.07 2273.07 1978.06 2303.08 1958.06 2333.08 1943.06 2364 1928" stroke="#7F7F7F" stroke-width="10.3125" stroke-linecap="round" stroke-linejoin="round" stroke-miterlimit="10" fill="none"/></g><g><path d="M2388 1928C2388 1941.26 2377.03 1952.01 2363.5 1952.01 2349.97 1952.01 2339 1941.26 2339 1928 2339 1914.74 2349.97 1903.99 2363.5 1903.99 2377.03 1903.99 2388 1914.74 2388 1928Z" stroke="#7F7F7F" stroke-width="9.16667" stroke-linejoin="round" stroke-miterlimit="10" fill="none"/></g><g><path d="M603.5 2421.5 633.521 2418.58 663.522 2414.58 694.523 2410.58 724.524 2407.58 754.525 2404.58 785.526 2399.58 815.527 2390.58 845.528 2381.58 876.529 2375.58 906.53 2368.58 936.531 2359.58 967.532 2344.58 997.533 2325.58 1028.53 2309.58 1058.53 2298.58 1088.54 2292.58 1119.54 2284.58 1149.54 2276.57 1179.54 2272.57 1210.54 2265.57 1240.54 2256.57 1270.54 2245.57 1301.54 2232.57 1331.54 2221.57 1361.54 2213.57 1392.55 2206.57 1422.55 2198.57 1453.55 2190.57 1483.55 2183.57 1513.55 2178.57 1544.55 2171.57 1574.55 2164.57 1604.55 2153.57 1635.55 2144.57 1665.55 2139.57 1695.56 2131.57 1726.56 2121.57 1756.56 2109.57 1787.56 2097.57 1817.56 2086.57 1847.56 2070.57 1878.56 2072.57 1908.56 2066.57 1938.56 2052.57 1969.56 2043.57 1999.57 2036.57 2029.57 2029.57 2060.57 2029.57 2090.57 2023.57 2120.57 2013.57 2151.57 2002.57 2181.57 1993.57 2212.57 1987.57 2242.57 1964.56 2272.57 1922.56 2303.58 1899.56 2333.58 1876.56 2363.5 1851.5" stroke="#156082" stroke-width="11.4583" stroke-linecap="round" stroke-linejoin="round" stroke-miterlimit="10" fill="none"/></g><g><path d="M2386 1851C2386 1863.7 2375.7 1874 2363 1874 2350.3 1874 2340 1863.7 2340 1851 2340 1838.3 2350.3 1828 2363 1828 2375.7 1828 2386 1838.3 2386 1851Z" stroke="#156082" stroke-width="10.3125" stroke-linejoin="round" stroke-miterlimit="10" fill="none"/></g><g><path d="M603 2421 633.021 2416.08 664.022 2401.08 694.023 2386.08 724.024 2359.08 755.025 2344.08 785.026 2331.08 816.027 2291.08 846.028 2288.07 876.029 2290.08 907.03 2287.07 937.031 2271.07 967.032 2246.07 998.033 2221.07 1028.03 2185.07 1058.03 2145.07 1089.04 2114.07 1119.04 2092.07 1149.04 2081.07 1180.04 2069.07 1210.04 2053.07 1241.04 2038.07 1271.04 2032.07 1301.04 2025.07 1332.04 2031.07 1362.04 2042.07 1392.05 2034.07 1423.05 2016.07 1453.05 1995.07 1483.05 1980.06 1514.05 1947.06 1544.05 1909.06 1575.05 1879.06 1605.05 1845.06 1635.05 1838.06 1666.05 1824.06 1696.06 1815.06 1726.06 1784.06 1757.06 1707.06 1787.06 1579.05 1817.06 1449.05 1848.06 1353.04 1878.06 1426.05 1908.06 1490.05 1939.06 1492.05 1969.06 1460.05 2000.07 1423.05 2030.07 1387.05 2060.07 1286.04 2091.07 1247.04 2121.07 1166.04 2151.07 986.032 2182.07 927.03 2212.07 863.028 2242.07 682.022 2273.07 615.02 2303.08 549.018 2333.08 464.015 2364 388" stroke="#FF0000" stroke-width="10.3125" stroke-linecap="round" stroke-linejoin="round" stroke-miterlimit="10" stroke-dasharray="30.9375 41.25" fill="none"/></g><g><path d="M2388 386.5C2388 400.031 2377.03 411 2363.5 411 2349.97 411 2339 400.031 2339 386.5 2339 372.969 2349.97 362 2363.5 362 2377.03 362 2388 372.969 2388 386.5Z" stroke="#FF0000" stroke-width="9.16667" stroke-linejoin="round" stroke-miterlimit="10" fill="none"/></g><g><path d="M0 0 29.9999 40.9999" stroke="#C00000" stroke-width="21.7708" stroke-linecap="round" stroke-linejoin="round" stroke-miterlimit="10" fill="none" fill-rule="evenodd" transform="matrix(1 0 0 -1 2334 1410)"/></g><g><path d="M603 2421 633.021 2418.08 664.022 2410.08 694.023 2402.08 724.024 2391.08 755.025 2385.08 785.026 2377.08 816.027 2357.08 846.028 2351.08 876.029 2347.08 907.03 2341.08 937.031 2330.08 967.032 2312.08 998.033 2291.08 1028.03 2268.07 1058.03 2248.07 1089.04 2234.07 1119.04 2221.07 1149.04 2212.07 1180.04 2205.07 1210.04 2195.07 1241.04 2184.07 1271.04 2175.07 1301.04 2164.07 1332.04 2159.07 1362.04 2157.07 1392.05 2149.07 1423.05 2138.07 1453.05 2126.07 1483.05 2116.07 1514.05 2102.07 1544.05 2085.07 1575.05 2071.07 1605.05 2052.07 1635.05 2043.07 1666.05 2035.07 1696.06 2027.07 1726.06 2010.07 1757.06 1976.06 1787.06 1926.06 1817.06 1876.06 1848.06 1834.06 1878.06 1859.06 1908.06 1876.06 1939.06 1868.06 1969.06 1851.06 2000.07 1834.06 2030.07 1817.06 2060.07 1784.06 2091.07 1767.06 2121.07 1734.06 2151.07 1667.05 2182.07 1642.05 2212.07 1616.05 2242.07 1541.05 2273.07 1491.05 2303.08 1454.05 2333.08 1410.05" stroke="#C00000" stroke-width="13.75" stroke-linecap="round" stroke-linejoin="round" stroke-miterlimit="10" fill="none"/></g><g><path d="M2388 1368C2388 1381.81 2376.81 1393 2363 1393 2349.19 1393 2338 1381.81 2338 1368 2338 1354.19 2349.19 1343 2363 1343 2376.81 1343 2388 1354.19 2388 1368Z" stroke="#C00000" stroke-width="8.02083" stroke-linejoin="round" stroke-miterlimit="10" fill="none"/></g><g><text fill="#7F7F7F" font-family="Aptos,Aptos_MSFontService,sans-serif" font-weight="700" font-size="50" transform="matrix(1 0 0 1 2431.36 1977)">National Inflation</text></g><g><text fill="#7F7F7F" font-family="Aptos,Aptos_MSFontService,sans-serif" font-weight="700" font-size="50" transform="matrix(1 0 0 1 2831.32 1977)">, </text></g><g><text fill="#7F7F7F" font-family="Aptos,Aptos_MSFontService,sans-serif" font-weight="700" font-size="50" transform="matrix(1 0 0 1 2556.28 2039)">853.6%</text></g><g><text fill="#156082" font-family="Aptos,Aptos_MSFontService,sans-serif" font-weight="700" font-size="50" transform="matrix(1 0 0 1 2285.39 1762)">Construction Materials </text></g><g><text fill="#156082" font-family="Aptos,Aptos_MSFontService,sans-serif" font-weight="700" font-size="50" transform="matrix(1 0 0 1 2423.97 1824)">and Wages</text></g><g><text fill="#156082" font-family="Aptos,Aptos_MSFontService,sans-serif" font-weight="700" font-size="50" transform="matrix(1 0 0 1 2467.26 1885)">986.1%</text></g><g><text fill="#FF0000" font-family="Aptos,Aptos_MSFontService,sans-serif" font-weight="700" font-size="50" transform="matrix(1 0 0 1 2387.1 297)">Indirect Labor, OH &amp; </text></g><g><text fill="#FF0000" font-family="Aptos,Aptos_MSFontService,sans-serif" font-weight="700" font-size="50" transform="matrix(1 0 0 1 2555.88 359)">Profit</text></g><g><text fill="#FF0000" font-family="Aptos,Aptos_MSFontService,sans-serif" font-weight="700" font-size="50" transform="matrix(1 0 0 1 2522.97 420)">3522.5%</text></g><g><text fill="#C00000" font-family="Aptos,Aptos_MSFontService,sans-serif" font-weight="700" font-size="50" transform="matrix(1 0 0 1 2345.68 1280)">Owner Pays (Construction </text></g><g><text fill="#C00000" font-family="Aptos,Aptos_MSFontService,sans-serif" font-weight="700" font-size="50" transform="matrix(1 0 0 1 2531.01 1342)">Analytics)</text></g><g><text fill="#C00000" font-family="Aptos,Aptos_MSFontService,sans-serif" font-weight="700" font-size="50" transform="matrix(1 0 0 1 2548.91 1403)">1823.1%</text></g><g><text fill="#595959" font-family="Aptos,Aptos_MSFontService,sans-serif" font-weight="400" font-size="41" transform="matrix(1 0 0 1 493.668 2433)">0%</text></g><g><text fill="#595959" font-family="Aptos,Aptos_MSFontService,sans-serif" font-weight="400" font-size="41" transform="matrix(1 0 0 1 449.576 2202)">400%</text></g><g><text fill="#595959" font-family="Aptos,Aptos_MSFontService,sans-serif" font-weight="400" font-size="41" transform="matrix(1 0 0 1 449.576 1971)">800%</text></g><g><text fill="#595959" font-family="Aptos,Aptos_MSFontService,sans-serif" font-weight="400" font-size="41" transform="matrix(1 0 0 1 427.53 1740)">1200%</text></g><g><text fill="#595959" font-family="Aptos,Aptos_MSFontService,sans-serif" font-weight="400" font-size="41" transform="matrix(1 0 0 1 427.53 1509)">1600%</text></g><g><text fill="#595959" font-family="Aptos,Aptos_MSFontService,sans-serif" font-weight="400" font-size="41" transform="matrix(1 0 0 1 427.53 1278)">2000%</text></g><g><text fill="#595959" font-family="Aptos,Aptos_MSFontService,sans-serif" font-weight="400" font-size="41" transform="matrix(1 0 0 1 427.53 1047)">2400%</text></g><g><text fill="#595959" font-family="Aptos,Aptos_MSFontService,sans-serif" font-weight="400" font-size="41" transform="matrix(1 0 0 1 427.53 816)">2800%</text></g><g><text fill="#595959" font-family="Aptos,Aptos_MSFontService,sans-serif" font-weight="400" font-size="41" transform="matrix(1 0 0 1 427.53 585)">3200%</text></g><g><text fill="#595959" font-family="Aptos,Aptos_MSFontService,sans-serif" font-weight="400" font-size="41" transform="matrix(1 0 0 1 427.53 355)">3600%</text></g><g><text fill="#595959" font-family="Aptos,Aptos_MSFontService,sans-serif" font-weight="400" font-size="41" transform="matrix(1 0 0 1 427.53 124)">4000%</text></g><g><text fill="#595959" font-family="Aptos,Aptos_MSFontService,sans-serif" font-weight="400" font-size="41" transform="matrix(1 0 0 1 558.963 2486)">1967</text></g><g><text fill="#595959" font-family="Aptos,Aptos_MSFontService,sans-serif" font-weight="400" font-size="41" transform="matrix(1 0 0 1 680.4 2486)">1971</text></g><g><text fill="#595959" font-family="Aptos,Aptos_MSFontService,sans-serif" font-weight="400" font-size="41" transform="matrix(1 0 0 1 801.838 2486)">1975</text></g><g><text fill="#595959" font-family="Aptos,Aptos_MSFontService,sans-serif" font-weight="400" font-size="41" transform="matrix(1 0 0 1 923.275 2486)">1979</text></g><g><text fill="#595959" font-family="Aptos,Aptos_MSFontService,sans-serif" font-weight="400" font-size="41" transform="matrix(1 0 0 1 1044.71 2486)">1983</text></g><g><text fill="#595959" font-family="Aptos,Aptos_MSFontService,sans-serif" font-weight="400" font-size="41" transform="matrix(1 0 0 1 1166.15 2486)">1987</text></g><g><text fill="#595959" font-family="Aptos,Aptos_MSFontService,sans-serif" font-weight="400" font-size="41" transform="matrix(1 0 0 1 1287.59 2486)">1991</text></g><g><text fill="#595959" font-family="Aptos,Aptos_MSFontService,sans-serif" font-weight="400" font-size="41" transform="matrix(1 0 0 1 1409.02 2486)">1995</text></g><g><text fill="#595959" font-family="Aptos,Aptos_MSFontService,sans-serif" font-weight="400" font-size="41" transform="matrix(1 0 0 1 1530.46 2486)">1999</text></g><g><text fill="#595959" font-family="Aptos,Aptos_MSFontService,sans-serif" font-weight="400" font-size="41" transform="matrix(1 0 0 1 1651.9 2486)">2003</text></g><g><text fill="#595959" font-family="Aptos,Aptos_MSFontService,sans-serif" font-weight="400" font-size="41" transform="matrix(1 0 0 1 1773.34 2486)">2007</text></g><g><text fill="#595959" font-family="Aptos,Aptos_MSFontService,sans-serif" font-weight="400" font-size="41" transform="matrix(1 0 0 1 1894.77 2486)">2011</text></g><g><text fill="#595959" font-family="Aptos,Aptos_MSFontService,sans-serif" font-weight="400" font-size="41" transform="matrix(1 0 0 1 2016.21 2486)">2015</text></g><g><text fill="#595959" font-family="Aptos,Aptos_MSFontService,sans-serif" font-weight="400" font-size="41" transform="matrix(1 0 0 1 2137.65 2486)">2019</text></g><g><text fill="#595959" font-family="Aptos,Aptos_MSFontService,sans-serif" font-weight="400" font-size="41" transform="matrix(1 0 0 1 2259.09 2486)">2023</text></g><g><text fill="#595959" font-family="Aptos,Aptos_MSFontService,sans-serif" font-weight="700" font-size="64" transform="matrix(1 0 0 1 988.625 39)">Construction Escalation vs. National Inflation </text></g></g></svg>