<svg width="3492" height="2098" xmlns="http://www.w3.org/2000/svg" xmlns:xlink="http://www.w3.org/1999/xlink" xml:space="preserve" overflow="hidden"><defs><clipPath id="clip0"><rect x="-71" y="204" width="3492" height="2098"/></clipPath></defs><g clip-path="url(#clip0)" transform="translate(71 -204)"><g><path d="M291.5 2025.57 2624.5 2025.57M291.5 1838.56 2624.5 1838.56M291.5 1651.55 2624.5 1651.55M291.5 1463.55 2624.5 1463.55M291.5 1276.54 2624.5 1276.54M291.5 1088.54 2624.5 1088.54M291.5 901.53 2624.5 901.53M291.5 714.524 2624.5 714.524M291.5 526.517 2624.5 526.517M291.5 339.5 2624.5 339.5" stroke="#D9D9D9" stroke-width="3.4375" stroke-linejoin="round" stroke-miterlimit="10" fill="none"/></g><g><path d="M291.5 339.5 291.5 2213.5M449.515 339.5 449.515 2213.5M607.52 339.5 607.52 2213.5M765.525 339.5 765.525 2213.5M924.531 339.5 924.531 2213.5M1082.54 339.5 1082.54 2213.5M1240.54 339.5 1240.54 2213.5M1398.55 339.5 1398.55 2213.5M1556.55 339.5 1556.55 2213.5M1715.56 339.5 1715.56 2213.5M1873.56 339.5 1873.56 2213.5M2031.57 339.5 2031.57 2213.5M2189.57 339.5 2189.57 2213.5M2347.58 339.5 2347.58 2213.5M2506.5 339.5 2506.5 2213.5" stroke="#D9D9D9" stroke-width="3.4375" stroke-linejoin="round" stroke-miterlimit="10" fill="none"/></g><g><path d="M291.5 2213.5 2624.5 2213.5" stroke="#D9D9D9" stroke-width="3.4375" stroke-linejoin="round" stroke-miterlimit="10" fill="none" fill-rule="evenodd"/></g><g><path d="M311 2213 351.012 2211.07 390.013 2208.07 430.014 2206.07 469.015 2203.07 509.017 2201.07 548.018 2198.07 588.019 2191.07 627.021 2185.07 667.022 2180.07 707.023 2175.07 746.024 2169.07 786.026 2158.07 825.027 2144.07 865.028 2133.07 904.03 2125.07 944.031 2120.07 983.032 2114.07 1023.03 2109.07 1063.03 2106.07 1102.04 2101.07 1142.04 2094.07 1181.04 2086.07 1221.04 2077.07 1260.04 2069.07 1300.04 2063.07 1339.04 2058.07 1379.05 2053.07 1419.05 2046.07 1458.05 2042.07 1498.05 2038.07 1537.05 2033.07 1577.05 2028.07 1616.05 2020.07 1656.05 2014.07 1695.06 2010.07 1735.06 2004.07 1774.06 1997.07 1814.06 1988.07 1854.06 1979.06 1893.06 1971.06 1933.06 1960.06 1972.06 1962.06 2012.07 1957.06 2051.07 1947.06 2091.07 1941.06 2130.07 1936.06 2170.07 1931.06 2210.07 1930.06 2249.07 1926.06 2289.07 1919.06 2328.08 1911.06 2368.08 1905.06 2407.08 1900.06 2447.08 1883.06 2486.08 1853.06 2526.08 1837.06 2565.08 1825.06 2605 1813" stroke="#7F7F7F" stroke-width="10.3125" stroke-linecap="round" stroke-linejoin="round" stroke-miterlimit="10" fill="none"/></g><g><path d="M2630 1813.5C2630 1827.03 2619.03 1838 2605.5 1838 2591.97 1838 2581 1827.03 2581 1813.5 2581 1799.97 2591.97 1789 2605.5 1789 2619.03 1789 2630 1799.97 2630 1813.5Z" stroke="#7F7F7F" stroke-width="9.16667" stroke-linejoin="round" stroke-miterlimit="10" fill="none"/></g><g><path d="M311.5 2213.5 350.512 2210.57 390.513 2207.57 429.514 2204.57 469.516 2201.57 508.517 2199.57 548.518 2195.57 587.519 2188.57 627.521 2180.57 667.522 2176.57 706.523 2170.57 746.525 2162.57 785.526 2151.57 825.527 2135.57 864.529 2122.57 904.53 2113.57 943.531 2108.57 983.532 2102.57 1023.53 2096.57 1062.54 2092.57 1102.54 2086.57 1141.54 2079.57 1181.54 2070.57 1220.54 2059.57 1260.54 2051.57 1299.54 2044.57 1339.54 2039.57 1378.55 2032.57 1418.55 2025.57 1458.55 2020.57 1497.55 2016.57 1537.55 2010.57 1576.55 2005.57 1616.55 1996.57 1655.55 1988.57 1695.56 1984.57 1734.56 1977.57 1774.56 1970.56 1814.56 1959.56 1853.56 1950.56 1893.56 1941.56 1932.56 1929.56 1972.56 1930.56 2011.57 1924.56 2051.57 1914.56 2090.57 1906.56 2130.57 1901.56 2169.57 1895.56 2209.57 1895.56 2249.57 1890.56 2288.58 1882.56 2328.58 1873.56 2367.58 1866.56 2407.58 1861.56 2446.58 1842.56 2486.58 1808.56 2525.58 1790.56 2565.58 1771.56 2605.5 1751.5" stroke="#156082" stroke-width="11.4583" stroke-linecap="round" stroke-linejoin="round" stroke-miterlimit="10" fill="none"/></g><g><path d="M2628 1751C2628 1763.7 2617.7 1774 2605 1774 2592.3 1774 2582 1763.7 2582 1751 2582 1738.3 2592.3 1728 2605 1728 2617.7 1728 2628 1738.3 2628 1751Z" stroke="#156082" stroke-width="10.3125" stroke-linejoin="round" stroke-miterlimit="10" fill="none"/></g><g><path d="M311 2213 351.012 2209.07 390.013 2197.07 430.014 2185.07 469.015 2163.07 509.017 2150.07 548.018 2140.07 588.019 2107.07 627.021 2105.07 667.022 2107.07 707.023 2104.07 746.024 2092.07 786.026 2071.07 825.027 2051.07 865.028 2021.07 904.03 1989.07 944.031 1964.06 983.032 1946.06 1023.03 1937.06 1063.03 1927.06 1102.04 1915.06 1142.04 1902.06 1181.04 1898.06 1221.04 1892.06 1260.04 1897.06 1300.04 1906.06 1339.04 1899.06 1379.05 1884.06 1419.05 1867.06 1458.05 1856.06 1498.05 1828.06 1537.05 1797.06 1577.05 1773.06 1616.05 1745.06 1656.05 1740.06 1695.06 1729.06 1735.06 1721.06 1774.06 1696.06 1814.06 1634.05 1854.06 1530.05 1893.06 1425.05 1933.06 1347.04 1972.06 1406.05 2012.07 1458.05 2051.07 1459.05 2091.07 1433.05 2130.07 1403.05 2170.07 1374.05 2210.07 1292.04 2249.07 1261.04 2289.07 1194.04 2328.08 1048.03 2368.08 1001.03 2407.08 949.031 2447.08 802.026 2486.08 747.025 2526.08 694.023 2565.08 625.021 2605 563" stroke="#FF0000" stroke-width="10.3125" stroke-linecap="round" stroke-linejoin="round" stroke-miterlimit="10" stroke-dasharray="30.9375 41.25" fill="none"/></g><g><path d="M2630 562.5C2630 576.031 2619.03 587 2605.5 587 2591.97 587 2581 576.031 2581 562.5 2581 548.969 2591.97 538 2605.5 538 2619.03 538 2630 548.969 2630 562.5Z" stroke="#FF0000" stroke-width="9.16667" stroke-linejoin="round" stroke-miterlimit="10" fill="none"/></g><g><path d="M0 0 38.9998 34" stroke="#C00000" stroke-width="21.7708" stroke-linecap="round" stroke-linejoin="round" stroke-miterlimit="10" fill="none" fill-rule="evenodd" transform="matrix(1 0 0 -1 2566 1393)"/></g><g><path d="M311 2213 351.012 2210.07 390.013 2204.07 430.014 2198.07 469.015 2189.07 509.017 2184.07 548.018 2177.07 588.019 2161.07 627.021 2156.07 667.022 2153.07 707.023 2148.07 746.024 2139.07 786.026 2125.07 825.027 2108.07 865.028 2089.07 904.03 2073.07 944.031 2061.07 983.032 2051.07 1023.03 2044.07 1063.03 2038.07 1102.04 2030.07 1142.04 2021.07 1181.04 2013.07 1221.04 2004.07 1260.04 2000.07 1300.04 1999.07 1339.04 1993.07 1379.05 1984.07 1419.05 1973.06 1458.05 1966.06 1498.05 1954.06 1537.05 1940.06 1577.05 1929.06 1616.05 1913.06 1656.05 1907.06 1695.06 1900.06 1735.06 1893.06 1774.06 1880.06 1814.06 1852.06 1854.06 1812.06 1893.06 1771.06 1933.06 1737.06 1972.06 1757.06 2012.07 1771.06 2051.07 1764.06 2091.07 1750.06 2130.07 1737.06 2170.07 1723.06 2210.07 1696.06 2249.07 1683.06 2289.07 1655.05 2328.08 1601.05 2368.08 1581.05 2407.08 1560.05 2447.08 1499.05 2486.08 1458.05 2526.08 1428.05 2565.08 1393.05" stroke="#C00000" stroke-width="13.75" stroke-linecap="round" stroke-linejoin="round" stroke-miterlimit="10" fill="none"/></g><g><path d="M2630 1359C2630 1372.81 2618.81 1384 2605 1384 2591.19 1384 2580 1372.81 2580 1359 2580 1345.19 2591.19 1334 2605 1334 2618.81 1334 2630 1345.19 2630 1359Z" stroke="#C00000" stroke-width="8.02083" stroke-linejoin="round" stroke-miterlimit="10" fill="none"/></g><g><text fill="#7F7F7F" font-family="Aptos,Aptos_MSFontService,sans-serif" font-weight="700" font-size="50" transform="matrix(1 0 0 1 2677.06 1881)">National Inflation</text></g><g><text fill="#7F7F7F" font-family="Aptos,Aptos_MSFontService,sans-serif" font-weight="700" font-size="50" transform="matrix(1 0 0 1 3077.03 1881)">, </text></g><g><text fill="#7F7F7F" font-family="Aptos,Aptos_MSFontService,sans-serif" font-weight="700" font-size="50" transform="matrix(1 0 0 1 3102.4 1881)">853.6%</text></g><g><text fill="#156082" font-family="Aptos,Aptos_MSFontService,sans-serif" font-weight="700" font-size="50" transform="matrix(1 0 0 1 2451.9 1701)">Construction Materials and Wages</text></g><g><text fill="#156082" font-family="Aptos,Aptos_MSFontService,sans-serif" font-weight="700" font-size="50" transform="matrix(1 0 0 1 2764.82 1763)">986.1%</text></g><g><text fill="#FF0000" font-family="Aptos,Aptos_MSFontService,sans-serif" font-weight="700" font-size="50" transform="matrix(1 0 0 1 2619.39 512)">Indirect Labor, OH &amp; Profit</text></g><g><text fill="#FF0000" font-family="Aptos,Aptos_MSFontService,sans-serif" font-weight="700" font-size="50" transform="matrix(1 0 0 1 2823.56 574)">3522.5%</text></g><g><text fill="#C00000" font-family="Aptos,Aptos_MSFontService,sans-serif" font-weight="700" font-size="50" transform="matrix(1 0 0 1 2708 1123)">Owner Pays (Construction </text></g><g><text fill="#C00000" font-family="Aptos,Aptos_MSFontService,sans-serif" font-weight="700" font-size="50" transform="matrix(1 0 0 1 2893.35 1185)">Analytics)</text></g><g><g><text fill="#C00000" font-family="Aptos,Aptos_MSFontService,sans-serif" font-weight="700" font-size="50" transform="matrix(1 0 0 1 2911.23 1246)">1823.1%</text></g></g><g><text fill="#595959" font-family="Aptos,Aptos_MSFontService,sans-serif" font-weight="400" font-size="41" transform="matrix(1 0 0 1 197.114 2225)">0%</text></g><g><text fill="#595959" font-family="Aptos,Aptos_MSFontService,sans-serif" font-weight="400" font-size="41" transform="matrix(1 0 0 1 153.022 2037)">400%</text></g><g><text fill="#595959" font-family="Aptos,Aptos_MSFontService,sans-serif" font-weight="400" font-size="41" transform="matrix(1 0 0 1 153.022 1850)">800%</text></g><g><text fill="#595959" font-family="Aptos,Aptos_MSFontService,sans-serif" font-weight="400" font-size="41" transform="matrix(1 0 0 1 130.977 1663)">1200%</text></g><g><text fill="#595959" font-family="Aptos,Aptos_MSFontService,sans-serif" font-weight="400" font-size="41" transform="matrix(1 0 0 1 130.977 1475)">1600%</text></g><g><text fill="#595959" font-family="Aptos,Aptos_MSFontService,sans-serif" font-weight="400" font-size="41" transform="matrix(1 0 0 1 130.977 1288)">2000%</text></g><g><text fill="#595959" font-family="Aptos,Aptos_MSFontService,sans-serif" font-weight="400" font-size="41" transform="matrix(1 0 0 1 130.977 1101)">2400%</text></g><g><text fill="#595959" font-family="Aptos,Aptos_MSFontService,sans-serif" font-weight="400" font-size="41" transform="matrix(1 0 0 1 130.977 913)">2800%</text></g><g><text fill="#595959" font-family="Aptos,Aptos_MSFontService,sans-serif" font-weight="400" font-size="41" transform="matrix(1 0 0 1 130.977 726)">3200%</text></g><g><text fill="#595959" font-family="Aptos,Aptos_MSFontService,sans-serif" font-weight="400" font-size="41" transform="matrix(1 0 0 1 130.977 538)">3600%</text></g><g><text fill="#595959" font-family="Aptos,Aptos_MSFontService,sans-serif" font-weight="400" font-size="41" transform="matrix(1 0 0 1 130.977 351)">4000%</text></g><g><text fill="#595959" font-family="Aptos,Aptos_MSFontService,sans-serif" font-weight="400" font-size="41" transform="matrix(1 0 0 1 267.005 2278)">1967</text></g><g><text fill="#595959" font-family="Aptos,Aptos_MSFontService,sans-serif" font-weight="400" font-size="41" transform="matrix(1 0 0 1 425.215 2278)">1971</text></g><g><text fill="#595959" font-family="Aptos,Aptos_MSFontService,sans-serif" font-weight="400" font-size="41" transform="matrix(1 0 0 1 583.424 2278)">1975</text></g><g><text fill="#595959" font-family="Aptos,Aptos_MSFontService,sans-serif" font-weight="400" font-size="41" transform="matrix(1 0 0 1 741.633 2278)">1979</text></g><g><text fill="#595959" font-family="Aptos,Aptos_MSFontService,sans-serif" font-weight="400" font-size="41" transform="matrix(1 0 0 1 899.843 2278)">1983</text></g><g><text fill="#595959" font-family="Aptos,Aptos_MSFontService,sans-serif" font-weight="400" font-size="41" transform="matrix(1 0 0 1 1058.05 2278)">1987</text></g><g><text fill="#595959" font-family="Aptos,Aptos_MSFontService,sans-serif" font-weight="400" font-size="41" transform="matrix(1 0 0 1 1216.26 2278)">1991</text></g><g><text fill="#595959" font-family="Aptos,Aptos_MSFontService,sans-serif" font-weight="400" font-size="41" transform="matrix(1 0 0 1 1374.47 2278)">1995</text></g><g><text fill="#595959" font-family="Aptos,Aptos_MSFontService,sans-serif" font-weight="400" font-size="41" transform="matrix(1 0 0 1 1532.68 2278)">1999</text></g><g><text fill="#595959" font-family="Aptos,Aptos_MSFontService,sans-serif" font-weight="400" font-size="41" transform="matrix(1 0 0 1 1690.89 2278)">2003</text></g><g><text fill="#595959" font-family="Aptos,Aptos_MSFontService,sans-serif" font-weight="400" font-size="41" transform="matrix(1 0 0 1 1849.1 2278)">2007</text></g><g><text fill="#595959" font-family="Aptos,Aptos_MSFontService,sans-serif" font-weight="400" font-size="41" transform="matrix(1 0 0 1 2007.31 2278)">2011</text></g><g><text fill="#595959" font-family="Aptos,Aptos_MSFontService,sans-serif" font-weight="400" font-size="41" transform="matrix(1 0 0 1 2165.52 2278)">2015</text></g><g><text fill="#595959" font-family="Aptos,Aptos_MSFontService,sans-serif" font-weight="400" font-size="41" transform="matrix(1 0 0 1 2323.73 2278)">2019</text></g><g><text fill="#595959" font-family="Aptos,Aptos_MSFontService,sans-serif" font-weight="400" font-size="41" transform="matrix(1 0 0 1 2481.94 2278)">2023</text></g><g><text fill="#595959" font-family="Aptos,Aptos_MSFontService,sans-serif" font-weight="700" font-size="64" transform="matrix(1 0 0 1 1013.69 298)">Construction Escalation vs. National Inflation </text></g></g></svg>